<svg xmlns="http://www.w3.org/2000/svg" viewBox="0 0 12 12.463">
  <defs>
    <style>
      .cls-1 {
        fill: #4c4a48;
      }
    </style>
  </defs>
  <path id="Path_1287" data-name="Path 1287" class="cls-1" d="M11.953,9.958A6.2,6.2,0,0,0,8.436,5.934,3.51,3.51,0,0,0,9.464,3.522,3.385,3.385,0,0,0,8.389,1.038a3.34,3.34,0,0,0-4.683-.01A3.394,3.394,0,0,0,2.622,3.52,3.5,3.5,0,0,0,3.649,5.934,6.251,6.251,0,0,0,.366,9.274a3.352,3.352,0,0,0-.323,1.2A1.967,1.967,0,0,0,.587,11.92a1.993,1.993,0,0,0,1.446.614c.351,0,.731,0,1.2,0h3.3c1.139,0,2.315,0,3.473,0a2.037,2.037,0,0,0,1.652-.8A2,2,0,0,0,11.953,9.958Zm-7.1-3.322c.289-.078.437-.221.466-.455A.531.531,0,0,0,4.96,5.6,2.306,2.306,0,0,1,3.68,3.769,2.362,2.362,0,0,1,6,1.1a2.671,2.671,0,0,1,1.08.245A2.183,2.183,0,0,1,8.4,3.444a2.258,2.258,0,0,1-1.314,2.17.532.532,0,0,0,.12,1.017,5.238,5.238,0,0,1,2.4,1.314,5.41,5.41,0,0,1,1.353,2.386.875.875,0,0,1-.169.778.914.914,0,0,1-.71.377h-.01c-.96-.016-1.928-.013-2.862-.01H7.205l-1.168,0c-.39,0-.8,0-1.16-.005-.926-.005-1.883-.01-2.825.016a.945.945,0,0,1-.767-.388.915.915,0,0,1-.161-.827A5.474,5.474,0,0,1,2.479,7.932,5.293,5.293,0,0,1,4.848,6.636Z" transform="translate(-0.042 -0.075)"/>
</svg>
