<svg xmlns="http://www.w3.org/2000/svg" viewBox="0 0 9.625 11.917">
  <defs>
    <style>
      .cls-1 {
        fill: #4c4a48;
      }
    </style>
  </defs>
  <path id="Shape" class="cls-1" d="M9.09,11.917H.535A.539.539,0,0,1,0,11.375v-6.5a.539.539,0,0,1,.535-.542h.535V3.792A3.772,3.772,0,0,1,4.812,0,3.772,3.772,0,0,1,8.555,3.792v.542H9.09a.539.539,0,0,1,.535.542v6.5A.539.539,0,0,1,9.09,11.917Zm-8.021-6.5v5.416H8.555V5.417ZM4.812,1.084A2.694,2.694,0,0,0,2.139,3.792v.542H7.486V3.792A2.694,2.694,0,0,0,4.812,1.084Zm0,8.666a.539.539,0,0,1-.535-.542V8.5a1.069,1.069,0,1,1,1.069,0v.707A.539.539,0,0,1,4.812,9.75Z" transform="translate(0)"/>
</svg>
