<svg xmlns="http://www.w3.org/2000/svg" xmlns:xlink="http://www.w3.org/1999/xlink" viewBox="0 0 375 202">
  <defs>
    <style>
      .cls-1 {
        fill: #fff;
      }

      .cls-2 {
        fill: #fb3839;
      }

      .cls-3 {
        clip-path: url(#clip-path);
      }

      .cls-4 {
        fill: #24f0ab;
      }

      .cls-5 {
        fill: #e53939;
      }
    </style>
    <clipPath id="clip-path">
      <rect id="Rectangle_1064" data-name="Rectangle 1064" class="cls-1" width="375" height="53" transform="translate(7894 -972)"/>
    </clipPath>
  </defs>
  <g id="Group_1381" data-name="Group 1381" transform="translate(-1115 -796)">
    <g id="Group_1295" data-name="Group 1295" transform="translate(1115 796)">
      <path id="Path_1336" data-name="Path 1336" class="cls-2" d="M0,0H375V195.31H0Z"/>
      <g id="Mask_Group_27" data-name="Mask Group 27" class="cls-3" transform="translate(-7894 1121)">
        <path id="Path_1343" data-name="Path 1343" class="cls-1" d="M265.148,0C129.05,0,16.694,45.108,0,103.458H530.32C513.627,45.108,401.27,0,265.148,0Z" transform="translate(7816 -960.5)"/>
      </g>
    </g>
    <g id="Group_947" data-name="Group 947" transform="translate(1115 798)">
      <g id="Group_919" data-name="Group 919" transform="translate(136 66)">
        <path id="Path_1212" data-name="Path 1212" class="cls-1" d="M61.384,209.834,0,205.6H62.286Z" transform="translate(0 -154.086)"/>
        <g id="Group_902" data-name="Group 902" transform="translate(0 0.035)">
          <path id="Path_1213" data-name="Path 1213" class="cls-1" d="M80.608,150.6v.7c0,.827.175,1.528.927,1.528.576,0,.852-.351.852-1.153,0-.827-.2-1.378-1.979-2.531-2.255-1.428-3.157-2.506-3.157-4.685,0-2.756,1.5-4.259,4.309-4.259,3.357,0,4.284,1.854,4.284,4.385v.651H82.462v-.9c0-.952-.251-1.278-.8-1.278s-.8.4-.8,1.1.3,1.052,1.6,1.854c2.781,1.729,3.633,2.931,3.633,5.161,0,2.956-1.3,4.56-4.56,4.56-3.858,0-4.435-2.38-4.435-4.56v-.551h3.508Z" transform="translate(-57.783 -105.107)"/>
          <g id="Group_901" data-name="Group 901">
            <path id="Path_1214" data-name="Path 1214" class="cls-1" d="M0,125H3.558v8.318h.05c.6-1.8,1.854-5.687,2.731-8.318h4.034l-3.207,7.391,3.332,11.7H6.539L4.66,136.049l-1.1,2.43v5.612H0Z" transform="translate(0 -93.715)"/>
            <path id="Path_1215" data-name="Path 1215" class="cls-1" d="M48.571,151.447c0,2.505,0,3.934.05,4.785H45.063a7.645,7.645,0,0,1-.125-1.3,2.856,2.856,0,0,1-2.856,1.553c-1.478,0-2.982-.727-2.982-3.883V141.2h3.683v10.548c0,1.052.3,1.578,1,1.578.8,0,1.1-.526,1.1-1.954V141.225h3.683Z" transform="translate(-29.304 -105.856)"/>
            <path id="Path_1216" data-name="Path 1216" class="cls-1" d="M122.546,151.447c0,2.505,0,3.934.05,4.785h-3.533a7.646,7.646,0,0,1-.125-1.3,2.856,2.856,0,0,1-2.856,1.553c-1.478,0-2.982-.727-2.982-3.883V141.2h3.683v10.548c0,1.052.3,1.578,1,1.578.8,0,1.1-.526,1.1-1.954V141.225h3.683v10.222Z" transform="translate(-84.763 -105.856)"/>
            <path id="Path_1217" data-name="Path 1217" class="cls-1" d="M153.35,145.537c0-2.581,0-3.808-.05-5.111h3.508c.05.3.1,1.578.1,2.255a3.164,3.164,0,0,1,3.157-2.48v4.41c-1.779,0-3.032.326-3.032,2.881v7.993H153.35Z" transform="translate(-114.891 -105.107)"/>
            <g id="Group_900" data-name="Group 900" transform="translate(16.22)">
              <path id="Path_1218" data-name="Path 1218" class="cls-1" d="M72.22,9.746a4.637,4.637,0,0,0-4.259,2.681c-.226.451-.226.476-.727.326a11.5,11.5,0,0,1-1.2-.426A2.005,2.005,0,0,1,64.878,9.7a17.6,17.6,0,0,1,.7-2.029,4.9,4.9,0,0,1,1.829-2.08c1-.6,2.055-1.127,3.082-1.654,2.13-1.1,4.284-2.255,6.439-3.307A4.42,4.42,0,0,1,80.312.351c1.7.526,3.382,1.153,5.061,1.729,2.405.827,4.811,1.679,7.216,2.505a3.209,3.209,0,0,1,2.08,2.806c.05.977.05,1.979.15,2.931A4.813,4.813,0,0,0,96.5,13.5l1.879,1.578c.15.125.175.225.075.426a1.252,1.252,0,0,0,.1,1.4,1.015,1.015,0,0,1,.075,1.2,2.127,2.127,0,0,0-.075,1.9c.175.451.326.9.5,1.378a1.482,1.482,0,0,1-.075,1.178,1.163,1.163,0,0,1-1.553.676c-.9-.276-1.779-.626-2.681-.927-.251-.075-.3-.2-.226-.451a4.652,4.652,0,0,0-1.9-5.136,4.771,4.771,0,0,0-5.111-.05,4.691,4.691,0,0,0-1.779,2.1c-.1.251-.225.326-.476.225l-8.043-2.781c-.075-.025-.125-.05-.2-.075-.351-.075-.376-.276-.3-.6a4.7,4.7,0,0,0-3.483-5.687C72.871,9.8,72.52,9.8,72.22,9.746Zm17.714,1.929c.5-.05,1.027-.05,1.528-.125a14.074,14.074,0,0,0,1.378-.376c.175-.05.326-.125.3-.351-.075-.877-.125-1.779-.175-2.656a2.379,2.379,0,0,0-1.729-2.18c-.451-.125-.877-.3-1.3-.451-1.829-.626-3.633-1.278-5.462-1.9-.852-.3-1.754-.5-2.581-.852a3.152,3.152,0,0,0-2.13-.175,15.671,15.671,0,0,0-2.029.827c-.376.175-.376.225-.1.526.6.651,1.2,1.3,1.829,1.929A25.032,25.032,0,0,0,84.6,10.072,10.246,10.246,0,0,0,89.933,11.676Z" transform="translate(-64.738 -0.134)"/>
              <path id="Path_1219" data-name="Path 1219" class="cls-1" d="M87.315,46.557A3.558,3.558,0,1,1,83.757,43,3.539,3.539,0,0,1,87.315,46.557Zm-3.558,1.178a1.19,1.19,0,0,0,.05-2.38,1.248,1.248,0,0,0-1.278,1.178A1.225,1.225,0,0,0,83.757,47.735Z" transform="translate(-76.325 -32.259)"/>
              <path id="Path_1220" data-name="Path 1220" class="cls-1" d="M155.057,67.8a3.546,3.546,0,1,1-3.558,3.533A3.518,3.518,0,0,1,155.057,67.8Zm0,4.735a1.161,1.161,0,0,0,1.178-1.178,1.187,1.187,0,0,0-1.2-1.2,1.225,1.225,0,0,0-1.228,1.2A1.243,1.243,0,0,0,155.057,72.535Z" transform="translate(-129.761 -50.845)"/>
            </g>
          </g>
        </g>
        <g id="Group_905" data-name="Group 905" transform="translate(43.47 0)">
          <g id="Group_903" data-name="Group 903" transform="translate(0 30.493)">
            <path id="Path_1221" data-name="Path 1221" class="cls-1" d="M178.962,132.649h.075c.952-1.729,2.48-4.385,3.433-6.088h3.783c-1.253,1.929-2.631,3.858-3.783,5.687,0,1.077.752,8.218.752,9.371h-3.583c0-.6-.3-5.687-.3-6.189-.4.676-1.077,1.578-1.378,2l-.927,4.184H173.5l4.209-19.919h3.533Z" transform="translate(-173.5 -121.7)"/>
            <path id="Path_1222" data-name="Path 1222" class="cls-1" d="M214.207,141.1h3.608l-3.207,15.058H211Z" transform="translate(-201.604 -136.239)"/>
            <path id="Path_1223" data-name="Path 1223" class="cls-1" d="M230.3,144.936c.7-3.282.8-3.959.927-4.61h3.458a10.034,10.034,0,0,1-.15,1.077,3.375,3.375,0,0,1,2.731-1.3,1.956,1.956,0,0,1,2.13,1.378,3.9,3.9,0,0,1,3.082-1.378c2.029,0,2.881,1.478,2.38,3.884l-2.405,11.425h-3.583l2.33-11c.175-.852.05-1.328-.576-1.328-.752,0-1.077.551-1.328,1.754l-2.23,10.573h-3.583l2.305-10.974c.251-1.1-.05-1.353-.576-1.353-.752,0-1.077.551-1.3,1.679l-2.255,10.623H228.1Z" transform="translate(-214.42 -135.49)"/>
            <path id="Path_1224" data-name="Path 1224" class="cls-1" d="M302.725,121.7l-3.332,15.709c-.451,2.13-.7,3.382-.827,4.209h-3.508a6.057,6.057,0,0,1,.15-1.178,3.047,3.047,0,0,1-2.756,1.428c-2.43,0-2.781-2.2-2.23-4.911L291.5,131c.526-2.355,1.4-4.66,4.084-4.66a2.443,2.443,0,0,1,2.305,1.077l1.2-5.713Zm-7.642,9.345-1.278,6.013c-.175.852-.175,1.729.651,1.729.852,0,1.2-.676,1.478-2.029l1.153-5.437c.276-1.3.225-2.029-.7-2.029C295.685,129.292,295.334,129.943,295.084,131.045Z" transform="translate(-260.809 -121.7)"/>
            <path id="Path_1225" data-name="Path 1225" class="cls-1" d="M333.266,148.969l-.476,2.38c-.2.952-.075,1.629.676,1.629.8,0,1.027-.752,1.2-1.528l.125-.651H338.3l-.075.426c-.5,2.531-1.478,4.585-5.086,4.585-3.984,0-4.335-2.681-3.733-5.562l1.077-5.011c.576-2.656,1.629-4.936,5.211-4.936,3.909,0,4.41,2.38,3.783,5.337l-.727,3.357h-5.487Zm2.505-2.606.351-1.679c.2-.977.175-1.7-.676-1.7-.727,0-1.027.476-1.278,1.679l-.351,1.679h1.954Z" transform="translate(-290.172 -135.64)"/>
            <path id="Path_1226" data-name="Path 1226" class="cls-1" d="M370.8,143.267l1-4.71h3.583l-1,4.71Zm1.3-6.138.15-.777a9.21,9.21,0,0,1,2.606-5.086c1.328-1.528,1.6-2,1.829-3.157.225-1.1-.075-1.4-.651-1.4-.6,0-.927.476-1.152,1.553l-.225,1.027h-3.307l.225-1.027c.526-2.556,1.629-4.36,4.836-4.36,3.182,0,4.41,1.8,3.733,4.811-.351,1.6-.777,2.28-2.53,4.309a6.412,6.412,0,0,0-1.829,3.708l-.075.351H372.1Z" transform="translate(-321.367 -123.349)"/>
            <path id="Path_1227" data-name="Path 1227" class="cls-1" d="M225.3,123.6h3.583l-.7,3.332H224.6Z" transform="translate(-211.797 -123.124)"/>
          </g>
          <g id="Group_904" data-name="Group 904" transform="translate(7.193)">
            <path id="Path_1228" data-name="Path 1228" class="cls-1" d="M203.009,23.122a.19.19,0,0,1-.225-.225,4.194,4.194,0,0,0,.05-2.23c-.175-.351-.351-.7-.5-1.052a1.218,1.218,0,0,1,.225-1.4,1.029,1.029,0,0,0,.175-1.278c-.075-.175-.125-.351-.2-.526-.276-.651-.125-1,.426-1.5.7-.626,1.453-1.178,2.13-1.829a4.67,4.67,0,0,0,1.4-3.182c.05-.952.05-1.9.175-2.831A3,3,0,0,1,208.7,4.431c1.654-.6,3.332-1.2,5.011-1.779,2.33-.8,4.66-1.629,7.015-2.405A5.159,5.159,0,0,1,224.882.7c2.355,1.228,4.71,2.455,7.04,3.683a19.642,19.642,0,0,1,2.355,1.328,3.546,3.546,0,0,1,1.077,1.278,29.366,29.366,0,0,1,1.178,2.906,2.292,2.292,0,0,1-.526,1.979c-.025.05-.1.075-.15.1-.677.251-1.353.526-2.029.777-.2.075-.3-.025-.376-.2a4.736,4.736,0,0,0-1.127-1.654,4.655,4.655,0,0,0-7.015.777,4.5,4.5,0,0,0-.651,3.858c.05.225.025.376-.225.451-1.7.576-3.433,1.178-5.136,1.779-1.027.351-2.054.7-3.082,1.077-.426.15-.451.175-.651-.251a4.744,4.744,0,0,0-2.806-2.531,4.655,4.655,0,0,0-6.063,3.608,4.609,4.609,0,0,0,.1,2.1.308.308,0,0,1-.2.4A34.226,34.226,0,0,1,203.009,23.122ZM223.68,3.529c-.476-.251-.877-.451-1.278-.651a3.838,3.838,0,0,0-3.057-.3c-1.654.551-3.307,1.127-4.961,1.7-1.578.551-3.157,1.1-4.735,1.629a2.371,2.371,0,0,0-1.629,2.13l-.15,2.556a.419.419,0,0,0,.326.5,8.293,8.293,0,0,0,4.059.376,11.445,11.445,0,0,0,4.986-2.029A28.77,28.77,0,0,0,222,5.308C222.577,4.756,223.1,4.18,223.68,3.529Z" transform="translate(-202.21 0.005)"/>
            <path id="Path_1229" data-name="Path 1229" class="cls-1" d="M302.441,46.483a3.57,3.57,0,0,1-7.141,0,3.622,3.622,0,0,1,3.533-3.583A3.572,3.572,0,0,1,302.441,46.483Zm-3.558,1.178a1.191,1.191,0,1,0,0-2.38,1.19,1.19,0,0,0,0,2.38Z" transform="translate(-271.976 -32.15)"/>
            <path id="Path_1230" data-name="Path 1230" class="cls-1" d="M227.849,67.8a3.545,3.545,0,1,1-.025,7.091,3.545,3.545,0,1,1,.025-7.091Zm0,2.33a1.173,1.173,0,0,0-1.228,1.178,1.158,1.158,0,0,0,1.2,1.2,1.19,1.19,0,1,0,.025-2.38Z" transform="translate(-218.757 -50.811)"/>
            <path id="Path_1231" data-name="Path 1231" class="cls-1" d="M302.441,46.483a3.57,3.57,0,0,1-7.141,0,3.57,3.57,0,1,1,7.141,0Zm-3.558,1.178a1.191,1.191,0,1,0,0-2.38,1.19,1.19,0,0,0,0,2.38Z" transform="translate(-271.976 -32.15)"/>
            <path id="Path_1232" data-name="Path 1232" class="cls-1" d="M227.849,67.8a3.545,3.545,0,1,1-.025,7.091,3.545,3.545,0,1,1,.025-7.091Zm0,2.33a1.173,1.173,0,0,0-1.228,1.178,1.158,1.158,0,0,0,1.2,1.2,1.2,1.2,0,0,0,1.2-1.178A1.214,1.214,0,0,0,227.849,70.129Z" transform="translate(-218.757 -50.811)"/>
          </g>
        </g>
        <g id="Group_907" data-name="Group 907" transform="translate(63.412 51.138)">
          <g id="Group_906" data-name="Group 906">
            <path id="Path_1233" data-name="Path 1233" class="cls-1" d="M253.62,208.333c0,.476.2.827.7.827a.707.707,0,0,0,.727-.626c.075-.4-.025-.777-.6-1.2-.677-.526-.927-.952-.8-1.578a1.113,1.113,0,0,1,1.178-.952,1.054,1.054,0,0,1,1.127,1.253h-.526c.025-.326-.075-.777-.626-.777a.563.563,0,0,0-.6.526c-.075.376.05.626.6,1.077.8.626.952,1.1.8,1.754a1.217,1.217,0,0,1-1.278,1.027,1.117,1.117,0,0,1-1.228-1.3h.526Z" transform="translate(-253.092 -204.625)"/>
            <path id="Path_1234" data-name="Path 1234" class="cls-1" d="M265.4,209.8h-.551l-.351,1.629.6-.15Z" transform="translate(-261.642 -208.372)"/>
            <path id="Path_1235" data-name="Path 1235" class="cls-1" d="M271.751,209.8l-.251,1.128.6-.175.2-.952Z" transform="translate(-266.888 -208.372)"/>
            <path id="Path_1236" data-name="Path 1236" class="cls-1" d="M265.563,215.075l-.15.676c-.15.727-.451.977-.8.977-.4,0-.426-.3-.351-.727l.125-.576-.576.175-.125.551c-.175.827.276,1.052.676,1.052a.882.882,0,0,0,.852-.5,1.441,1.441,0,0,1-.05.251.141.141,0,0,0,.15.175h.351c.025-.175.1-.526.2-.977l.276-1.253Z" transform="translate(-261.001 -212.194)"/>
            <path id="Path_1237" data-name="Path 1237" class="cls-1" d="M274.505,209.5a1,1,0,0,0-.852.476c.025-.175.075-.351.075-.426H273.2c-.05.225-.1.526-.2,1l-.8,3.783.6-.2.3-1.453a.671.671,0,0,0,.7.451c.6,0,1.1-.426,1.378-1.7C275.482,210.076,275.106,209.5,274.505,209.5Zm.125,1.879c-.2.927-.5,1.278-.877,1.278-.476,0-.576-.4-.376-1.453.125-.676.426-1.228.9-1.228C274.68,209.976,274.856,210.352,274.63,211.379Z" transform="translate(-267.413 -208.147)"/>
            <path id="Path_1238" data-name="Path 1238" class="cls-1" d="M285.4,204.175l-.351,1.6c0,.05.05.05.075.025a.994.994,0,0,1,.777-.351c.526,0,.827.326.676,1.077l-.526,2.455a.025.025,0,0,1-.025.025h-.476c-.025,0-.05-.025-.025-.05l.5-2.355c.1-.426.025-.7-.376-.7-.451,0-.7.4-.827,1l-.426,2.08a.025.025,0,0,1-.025.025h-.476c-.025,0-.05-.025-.025-.05l1.027-4.836a.025.025,0,0,1,.025-.025h.476C285.372,204.125,285.4,204.15,285.4,204.175Z" transform="translate(-276.15 -204.1)"/>
            <path id="Path_1239" data-name="Path 1239" class="cls-1" d="M295.264,211.579a2.806,2.806,0,0,0-.075.6c0,.426.125.676.476.676a.682.682,0,0,0,.626-.5h.526a1.288,1.288,0,0,1-1.228.977c-1.027,0-1.027-1.027-.852-1.879.225-1.027.7-1.754,1.478-1.754.9,0,1.077.777.852,1.654l-.075.251h-1.729Zm1.3-.426a3.385,3.385,0,0,0,.075-.451c0-.326-.1-.576-.476-.576-.426,0-.676.476-.827,1.027Z" transform="translate(-284.238 -208.297)"/>
            <path id="Path_1240" data-name="Path 1240" class="cls-1" d="M303.053,209.8c.075,1.453.075,2.606.05,2.957h0c.175-.451.752-1.754,1.3-2.957h.551l-1.754,3.733c-.5,1.052-.777,1.127-1.278,1.127a1.271,1.271,0,0,1-.326-.05l.1-.476a.857.857,0,0,0,.276.025c.326,0,.476-.175.7-.7l-.225-3.658Z" transform="translate(-289.446 -208.372)"/>
            <path id="Path_1241" data-name="Path 1241" class="cls-1" d="M313.564,211.579a2.806,2.806,0,0,0-.075.6c0,.426.125.676.476.676a.682.682,0,0,0,.626-.5h.526a1.288,1.288,0,0,1-1.228.977c-1.027,0-1.027-1.027-.852-1.879.225-1.027.7-1.754,1.478-1.754.9,0,1.077.777.852,1.654l-.075.251h-1.729Zm1.328-.426a3.38,3.38,0,0,0,.075-.451c0-.326-.1-.576-.476-.576-.426,0-.676.476-.827,1.027Z" transform="translate(-297.953 -208.297)"/>
            <path id="Path_1242" data-name="Path 1242" class="cls-1" d="M327.6,209.785l.376-1.8v-.125L327.4,205.1h.551c.15.727.4,2,.426,2.305.3-.526.927-1.553,1.378-2.305h.6l-1.8,2.806c-.025.025-.025.05-.05.125l-.376,1.754Z" transform="translate(-308.782 -204.849)"/>
            <path id="Path_1243" data-name="Path 1243" class="cls-1" d="M335.064,211.579a2.808,2.808,0,0,0-.075.6c0,.426.125.676.476.676a.682.682,0,0,0,.626-.5h.526a1.288,1.288,0,0,1-1.228.977c-1.027,0-1.027-1.027-.852-1.879.225-1.027.7-1.754,1.478-1.754.9,0,1.077.777.852,1.654l-.075.251h-1.729Zm1.328-.426a3.376,3.376,0,0,0,.075-.451c0-.326-.1-.576-.476-.576-.426,0-.676.476-.827,1.027Z" transform="translate(-314.066 -208.297)"/>
            <path id="Path_1244" data-name="Path 1244" class="cls-1" d="M344.051,210.828c.125-.576.2-.927.25-1.178h.526c-.025.125-.05.276-.1.6a1.134,1.134,0,0,1,1.052-.651l-.125.6c-.6,0-.952.376-1.1,1.052l-.4,1.9H343.6Z" transform="translate(-320.923 -208.222)"/>
            <path id="Path_1245" data-name="Path 1245" class="cls-1" d="M355.1,209.785l.376-1.8v-.125L354.9,205.1h.551c.15.727.4,2,.426,2.305.3-.526.927-1.553,1.378-2.305h.6l-1.8,2.806c-.025.025-.025.05-.05.125l-.376,1.754Z" transform="translate(-329.392 -204.849)"/>
            <path id="Path_1246" data-name="Path 1246" class="cls-1" d="M364.462,211.452c-.175.927-.6,1.779-1.5,1.779s-1.127-.777-.9-1.9c.251-1.153.8-1.729,1.478-1.729C364.512,209.573,364.662,210.45,364.462,211.452Zm-1.854-.075c-.175.877-.075,1.378.4,1.378.451,0,.727-.576.9-1.328.15-.676.175-1.353-.4-1.353C363.109,210.049,362.783,210.6,362.608,211.377Z" transform="translate(-334.695 -208.22)"/>
            <path id="Path_1247" data-name="Path 1247" class="cls-1" d="M372.252,207.282c.3-.351.952-1.127,1.378-1.6h.626l-1.2,1.353.551,2.18h-.576l-.426-1.754-.5.5-.25,1.253H371.3l1.052-4.911h.551Z" transform="translate(-341.683 -204.25)"/>
          </g>
        </g>
        <path id="Path_1248" data-name="Path 1248" class="cls-4" d="M203.575,43.826a.271.271,0,0,0,.175.075.227.227,0,0,0,.175-.075.271.271,0,0,0,.075-.175.227.227,0,0,0-.075-.175.271.271,0,0,0-.175-.075.227.227,0,0,0-.175.075.242.242,0,0,0,0,.351Z" transform="translate(-152.513 -32.525)"/>
        <path id="Path_1249" data-name="Path 1249" class="cls-5" d="M195.612,29.486l-.251-.276.276-.251a.266.266,0,0,0-.351-.4l-.276.251-.251-.276a.266.266,0,0,0-.4.351l.251.276-.276.251a.266.266,0,1,0,.351.4l.276-.251.251.276a.272.272,0,0,0,.376.025A.251.251,0,0,0,195.612,29.486Z" transform="translate(-145.577 -21.317)"/>
        <path id="Path_1250" data-name="Path 1250" class="cls-4" d="M200.545,50.6l-.15-.326.326-.15a.288.288,0,0,0,.125-.351.278.278,0,0,0-.351-.125l-.326.15-.15-.326a.263.263,0,1,0-.476.225l.15.326-.326.15a.263.263,0,1,0,.225.476l.326-.15.15.326a.263.263,0,0,0,.476-.225Z" transform="translate(-149.308 -36.964)"/>
        <path id="Path_1251" data-name="Path 1251" class="cls-4" d="M195.2,15.7a.9.9,0,1,0,.9-.9A.9.9,0,0,0,195.2,15.7Zm1.253,0a.376.376,0,1,1-.376-.376A.369.369,0,0,1,196.453,15.7Z" transform="translate(-146.293 -11.091)"/>
        <path id="Path_1252" data-name="Path 1252" class="cls-5" d="M207.826,33.875a.251.251,0,0,0-.426.175.228.228,0,0,0,.075.175.248.248,0,1,0,.351-.351Z" transform="translate(-155.436 -25.33)"/>
        <path id="Path_1253" data-name="Path 1253" class="cls-5" d="M194.1,40.151a.227.227,0,0,0,.075.175.271.271,0,0,0,.175.075.228.228,0,0,0,.175-.075.271.271,0,0,0,.075-.175.227.227,0,0,0-.075-.175.242.242,0,0,0-.351,0A.2.2,0,0,0,194.1,40.151Z" transform="translate(-145.468 -29.902)"/>
        <path id="Path_1254" data-name="Path 1254" class="cls-4" d="M203,22.551a.227.227,0,0,0-.075-.175.251.251,0,0,0-.426.175.227.227,0,0,0,.075.175.242.242,0,0,0,.351,0A.2.2,0,0,0,203,22.551Z" transform="translate(-151.764 -16.711)"/>
        <path id="Path_1255" data-name="Path 1255" class="cls-1" d="M203.575,43.826a.271.271,0,0,0,.175.075.227.227,0,0,0,.175-.075.271.271,0,0,0,.075-.175.227.227,0,0,0-.075-.175.271.271,0,0,0-.175-.075.227.227,0,0,0-.175.075.242.242,0,0,0,0,.351Z" transform="translate(-152.513 -32.525)"/>
        <path id="Path_1256" data-name="Path 1256" class="cls-1" d="M195.612,29.586l-.251-.276.276-.251a.266.266,0,1,0-.351-.4l-.276.251-.251-.276a.266.266,0,0,0-.4.351l.251.276-.276.251a.266.266,0,0,0,.351.4l.276-.251.251.276a.272.272,0,0,0,.376.025A.252.252,0,0,0,195.612,29.586Z" transform="translate(-145.577 -21.392)"/>
        <path id="Path_1257" data-name="Path 1257" class="cls-1" d="M200.545,50.6l-.15-.326.326-.15a.288.288,0,0,0,.125-.351.278.278,0,0,0-.351-.125l-.326.15-.15-.326a.263.263,0,1,0-.476.225l.15.326-.326.15a.263.263,0,1,0,.225.476l.326-.15.15.326a.288.288,0,0,0,.351.125A.278.278,0,0,0,200.545,50.6Z" transform="translate(-149.308 -36.964)"/>
        <path id="Path_1258" data-name="Path 1258" class="cls-1" d="M195.2,15.7a.9.9,0,1,0,.9-.9A.9.9,0,0,0,195.2,15.7Zm1.253,0a.376.376,0,1,1-.376-.376A.369.369,0,0,1,196.453,15.7Z" transform="translate(-146.293 -11.091)"/>
        <path id="Path_1259" data-name="Path 1259" class="cls-1" d="M207.826,33.875a.251.251,0,0,0-.426.175.228.228,0,0,0,.075.175.248.248,0,1,0,.351-.351Z" transform="translate(-155.436 -25.33)"/>
        <path id="Path_1260" data-name="Path 1260" class="cls-1" d="M194.1,40.151a.227.227,0,0,0,.075.175.271.271,0,0,0,.175.075.228.228,0,0,0,.175-.075.271.271,0,0,0,.075-.175.227.227,0,0,0-.075-.175.242.242,0,0,0-.351,0A.227.227,0,0,0,194.1,40.151Z" transform="translate(-145.468 -29.902)"/>
        <path id="Path_1261" data-name="Path 1261" class="cls-1" d="M203,22.551a.227.227,0,0,0-.075-.175.251.251,0,0,0-.426.175.227.227,0,0,0,.075.175.242.242,0,0,0,.351,0A.2.2,0,0,0,203,22.551Z" transform="translate(-151.764 -16.711)"/>
      </g>
      <g id="Group_918" data-name="Group 918" transform="translate(131 84.5)">
        <g id="Group_28" data-name="Group 28" transform="translate(91.841 22.023)">
          <path id="Path_16" data-name="Path 16" class="cls-1" d="M408.968,181.938c-.4,0-.718.486-.718,1.086v1.286c0,.6.322,1.086.718,1.086s.718-.486.718-1.086v-1.286C409.687,182.424,409.365,181.938,408.968,181.938Z" transform="translate(-407.239 -181.938)"/>
          <path id="Path_17" data-name="Path 17" class="cls-1" d="M.718,0C.322,0,0,.486,0,1.086V2.372c0,.6.322,1.086.718,1.086s.718-.486.718-1.086V1.086C1.437.486,1.115,0,.718,0Z" transform="translate(3.458 1.011) rotate(90)"/>
        </g>
        <g id="Group_29" data-name="Group 29" transform="translate(39.36 15.567)">
          <path id="Path_16-2" data-name="Path 16" class="cls-1" d="M408.655,181.938c-.224,0-.4.274-.4.612v.724c0,.338.181.612.4.612s.4-.274.4-.612v-.724C409.06,182.212,408.878,181.938,408.655,181.938Z" transform="translate(-407.68 -181.938)"/>
          <path id="Path_17-2" data-name="Path 17" class="cls-1" d="M.4,0C.181,0,0,.274,0,.612v.724c0,.338.181.612.4.612s.4-.274.4-.612V.612C.81.274.628,0,.4,0Z" transform="translate(1.949 0.57) rotate(90)"/>
        </g>
        <g id="Group_32" data-name="Group 32" transform="translate(57.166 22.023)">
          <path id="Path_16-3" data-name="Path 16" class="cls-1" d="M408.968,181.938c-.4,0-.718.486-.718,1.086v1.286c0,.6.322,1.086.718,1.086s.718-.486.718-1.086v-1.286C409.687,182.424,409.365,181.938,408.968,181.938Z" transform="translate(-407.239 -181.938)"/>
          <path id="Path_17-3" data-name="Path 17" class="cls-1" d="M.718,0C.322,0,0,.486,0,1.086V2.372c0,.6.322,1.086.718,1.086s.718-.486.718-1.086V1.086C1.437.486,1.115,0,.718,0Z" transform="translate(3.458 1.011) rotate(90)"/>
        </g>
        <g id="Group_33" data-name="Group 33" transform="translate(74.972)">
          <path id="Path_16-4" data-name="Path 16" class="cls-1" d="M408.968,181.938c-.4,0-.718.486-.718,1.086v1.286c0,.6.322,1.086.718,1.086s.718-.486.718-1.086v-1.286C409.687,182.424,409.365,181.938,408.968,181.938Z" transform="translate(-407.239 -181.938)"/>
          <path id="Path_17-4" data-name="Path 17" class="cls-1" d="M.718,0C.322,0,0,.486,0,1.086V2.372c0,.6.322,1.086.718,1.086s.718-.486.718-1.086V1.086C1.437.486,1.115,0,.718,0Z" transform="translate(3.458 1.011) rotate(90)"/>
        </g>
        <g id="Group_38" data-name="Group 38" transform="translate(17.806 20.149)">
          <path id="Path_16-5" data-name="Path 16" class="cls-1" d="M408.968,181.938c-.4,0-.718.486-.718,1.086v1.286c0,.6.322,1.086.718,1.086s.718-.486.718-1.086v-1.286C409.687,182.424,409.365,181.938,408.968,181.938Z" transform="translate(-407.239 -181.938)"/>
          <path id="Path_17-5" data-name="Path 17" class="cls-1" d="M.718,0C.322,0,0,.486,0,1.086V2.372c0,.6.322,1.086.718,1.086s.718-.486.718-1.086V1.086C1.437.486,1.115,0,.718,0Z" transform="translate(3.458 1.011) rotate(90)"/>
        </g>
        <g id="Group_36" data-name="Group 36" transform="translate(109.646 33.737)">
          <path id="Path_16-6" data-name="Path 16" class="cls-1" d="M408.968,181.938c-.4,0-.718.486-.718,1.086v1.286c0,.6.322,1.086.718,1.086s.718-.486.718-1.086v-1.286C409.687,182.424,409.365,181.938,408.968,181.938Z" transform="translate(-407.239 -181.938)"/>
          <path id="Path_17-6" data-name="Path 17" class="cls-1" d="M.718,0C.322,0,0,.486,0,1.086V2.372c0,.6.322,1.086.718,1.086s.718-.486.718-1.086V1.086C1.437.486,1.115,0,.718,0Z" transform="translate(3.458 1.011) rotate(90)"/>
        </g>
        <g id="Group_37" data-name="Group 37" transform="translate(96.995 43.577)">
          <path id="Path_16-7" data-name="Path 16" class="cls-1" d="M408.968,181.938c-.4,0-.718.486-.718,1.086v1.286c0,.6.322,1.086.718,1.086s.718-.486.718-1.086v-1.286C409.687,182.424,409.365,181.938,408.968,181.938Z" transform="translate(-407.239 -181.938)"/>
          <path id="Path_17-7" data-name="Path 17" class="cls-1" d="M.718,0C.322,0,0,.486,0,1.086V2.372c0,.6.322,1.086.718,1.086s.718-.486.718-1.086V1.086C1.437.486,1.115,0,.718,0Z" transform="translate(3.458 1.011) rotate(90)"/>
        </g>
        <g id="Group_34" data-name="Group 34" transform="translate(25.772)">
          <path id="Path_16-8" data-name="Path 16" class="cls-1" d="M408.968,181.938c-.4,0-.718.486-.718,1.086v1.286c0,.6.322,1.086.718,1.086s.718-.486.718-1.086v-1.286C409.687,182.424,409.365,181.938,408.968,181.938Z" transform="translate(-407.239 -181.938)"/>
          <path id="Path_17-8" data-name="Path 17" class="cls-1" d="M.718,0C.322,0,0,.486,0,1.086V2.372c0,.6.322,1.086.718,1.086s.718-.486.718-1.086V1.086C1.437.486,1.115,0,.718,0Z" transform="translate(3.458 1.011) rotate(90)"/>
        </g>
        <g id="Group_30" data-name="Group 30" transform="translate(5.623 41.703)">
          <path id="Path_16-9" data-name="Path 16" class="cls-1" d="M408.968,181.938c-.4,0-.718.486-.718,1.086v1.286c0,.6.322,1.086.718,1.086s.718-.486.718-1.086v-1.286C409.687,182.424,409.365,181.938,408.968,181.938Z" transform="translate(-407.239 -181.938)"/>
          <path id="Path_17-9" data-name="Path 17" class="cls-1" d="M.718,0C.322,0,0,.486,0,1.086V2.372c0,.6.322,1.086.718,1.086s.718-.486.718-1.086V1.086C1.437.486,1.115,0,.718,0Z" transform="translate(3.458 1.011) rotate(90)"/>
        </g>
        <g id="Group_31" data-name="Group 31" transform="translate(0 14.704)">
          <path id="Path_16-10" data-name="Path 16" class="cls-1" d="M409.418,181.938c-.645,0-1.168.791-1.168,1.766v2.09c0,.975.523,1.766,1.168,1.766s1.168-.791,1.168-1.766V183.7C410.586,182.729,410.063,181.938,409.418,181.938Z" transform="translate(-406.607 -181.938)"/>
          <path id="Path_17-10" data-name="Path 17" class="cls-1" d="M1.168,0C.523,0,0,.791,0,1.766v2.09c0,.976.523,1.766,1.168,1.766s1.168-.791,1.168-1.766V1.766C2.336.791,1.813,0,1.168,0Z" transform="translate(5.623 1.643) rotate(90)"/>
        </g>
        <g id="Group_35" data-name="Group 35" transform="translate(100.275 0.647)">
          <path id="Path_16-11" data-name="Path 16" class="cls-1" d="M409.418,181.938c-.645,0-1.168.791-1.168,1.766v2.09c0,.975.523,1.766,1.168,1.766s1.168-.791,1.168-1.766V183.7C410.586,182.729,410.063,181.938,409.418,181.938Z" transform="translate(-406.607 -181.938)"/>
          <path id="Path_17-11" data-name="Path 17" class="cls-1" d="M1.168,0C.523,0,0,.791,0,1.766v2.09c0,.976.523,1.766,1.168,1.766s1.168-.791,1.168-1.766V1.766C2.336.791,1.813,0,1.168,0Z" transform="translate(5.623 1.643) rotate(90)"/>
        </g>
      </g>
    </g>
  </g>
</svg>
