<svg xmlns="http://www.w3.org/2000/svg" viewBox="0 0 15.178 11.092">
  <defs>
    <style>
      .cls-1 {
        fill: none;
        stroke: #fb3839;
        stroke-width: 0.8px;
        fill-rule: evenodd;
      }
    </style>
  </defs>
  <g id="Group_1191" data-name="Group 1191" transform="translate(0.4 0.4)">
    <path id="Path_1354" data-name="Path 1354" class="cls-1" d="M81.648,24.9l1.067,1.416,1.671-.569-1.021,1.439L84.432,28.6l-1.694-.522-1.021,1.45-.023-1.764L80,27.244l1.682-.58Z" transform="translate(-70.718 -22.011)"/>
    <path id="Path_1355" data-name="Path 1355" class="cls-1" d="M5.163,0h0A5.112,5.112,0,0,1,7.542.58a3.2,3.2,0,0,1,.336.2A5.18,5.18,0,0,1,9.34,2.112c.035.046-.035.116-.081.081h0c-.1-.081-.209-.151-.313-.232a3.2,3.2,0,0,0-.336-.2,4.284,4.284,0,0,0-2.03-.511h0A4.311,4.311,0,0,0,3.655,2.39,3.767,3.767,0,0,0,2.437,5.14h0A3.722,3.722,0,0,0,3.655,7.878,4.256,4.256,0,0,0,6.579,9.015h0a4.581,4.581,0,0,0,1.45-.244c.07-.023.151-.058.22-.081A4.354,4.354,0,0,0,9.259,8.1c.046-.035.116.035.081.081h0a5.883,5.883,0,0,1-.429.511,4.5,4.5,0,0,1-.487.453,5.154,5.154,0,0,1-3.249,1.149h0A5.17,5.17,0,0,1,0,5.14H0A5.093,5.093,0,0,1,1.52,1.508,5.158,5.158,0,0,1,5.163,0Z"/>
  </g>
</svg>
