<svg xmlns="http://www.w3.org/2000/svg" viewBox="0 0 15.062 11.638">
  <defs>
    <style>
      .cls-1 {
        fill: #fb3839;
      }
    </style>
  </defs>
  <g id="Mail" transform="translate(-1 -0.4)">
    <path id="Shape" class="cls-1" d="M14.035,11.638H1.027A1.028,1.028,0,0,1,0,10.611V1.027A1.028,1.028,0,0,1,1.027,0H14.035a1.028,1.028,0,0,1,1.027,1.027v9.584A1.028,1.028,0,0,1,14.035,11.638ZM4.095,7.03a.513.513,0,0,1,.376.863L1.753,10.611H13.309L10.591,7.893a.513.513,0,0,1,.726-.726l2.718,2.718-.007-6.593L7.8,7.942a.514.514,0,0,1-.616,0L1.027,3.3V9.886L3.745,7.168A.512.512,0,0,1,4.095,7.03Zm-3.068-6v.986l6.48,4.878,6.528-4.878V1.027Z" transform="translate(1 0.4)"/>
  </g>
</svg>
