<svg xmlns="http://www.w3.org/2000/svg" xmlns:xlink="http://www.w3.org/1999/xlink" viewBox="0 0 12.437 12.46">
  <defs>
    <style>
      .cls-1 {
        fill: none;
      }

      .cls-2 {
        clip-path: url(#clip-path);
      }

      .cls-3 {
        fill: #fb3839;
      }
    </style>
    <clipPath id="clip-path">
      <path id="_051-phone-call-6" data-name="051-phone-call-6" class="cls-1" d="M10.791,12.46h-.006c-.053,0-.1,0-.149-.007h-.009a11.936,11.936,0,0,1-5.177-1.841,11.781,11.781,0,0,1-3.6-3.6A11.926,11.926,0,0,1,.008,1.81a.034.034,0,0,1,0-.008A1.653,1.653,0,0,1,1.5.007,1.467,1.467,0,0,1,1.651,0H3.387A1.66,1.66,0,0,1,5.024,1.421v0a6.834,6.834,0,0,0,.375,1.5,1.656,1.656,0,0,1-.372,1.742l-.455.455A8.745,8.745,0,0,0,7.309,7.864l.452-.453a1.673,1.673,0,0,1,1.166-.479,1.641,1.641,0,0,1,.579.105,6.851,6.851,0,0,0,1.5.374h0a1.654,1.654,0,0,1,1.421,1.671V10.8a1.654,1.654,0,0,1-1.646,1.658ZM1.652,1.006l-.055,0a.649.649,0,0,0-.587.7A10.925,10.925,0,0,0,2.695,6.465a.007.007,0,0,0,0,0A10.761,10.761,0,0,0,5.991,9.762l0,0a10.918,10.918,0,0,0,4.736,1.686.52.52,0,0,0,.057,0,.647.647,0,0,0,.643-.649V9.066a.645.645,0,0,0-.554-.655,7.9,7.9,0,0,1-1.723-.43.647.647,0,0,0-.682.144l-.729.728a.5.5,0,0,1-.6.082A9.7,9.7,0,0,1,3.5,5.3a.5.5,0,0,1,.082-.6l.728-.729a.647.647,0,0,0,.145-.681,7.877,7.877,0,0,1-.43-1.724.649.649,0,0,0-.639-.554H1.652Z" transform="translate(4.015 4)"/>
    </clipPath>
  </defs>
  <g id="Group_1192" data-name="Group 1192" class="cls-2" transform="translate(-4.015 -4)">
    <g id="Color_" data-name="Color 🎨↩" transform="translate(0.888 0.885)">
      <rect id="Color_background" data-name="Color 🎨↩ background" class="cls-3" width="18.69" height="18.69"/>
      <rect id="Colors_Secondary_Main" data-name="Colors / Secondary / Main" class="cls-3" width="18.69" height="18.69"/>
    </g>
  </g>
</svg>
