<svg id="Group_1382" data-name="Group 1382" xmlns="http://www.w3.org/2000/svg" xmlns:xlink="http://www.w3.org/1999/xlink" viewBox="0 0 375 202">
  <defs>
    <style>
      .cls-1 {
        fill: #fff;
      }

      .cls-2 {
        fill: #fb3839;
      }

      .cls-3 {
        clip-path: url(#clip-path);
      }

      .cls-4 {
        opacity: 0.26;
      }
    </style>
    <clipPath id="clip-path">
      <rect id="Rectangle_1064" data-name="Rectangle 1064" class="cls-1" width="375" height="53" transform="translate(7894 -972)"/>
    </clipPath>
  </defs>
  <g id="Group_1187" data-name="Group 1187">
    <path id="Path_1336" data-name="Path 1336" class="cls-2" d="M0,0H375V195.31H0Z"/>
    <g id="Mask_Group_27" data-name="Mask Group 27" class="cls-3" transform="translate(-7894 1121)">
      <path id="Path_1343" data-name="Path 1343" class="cls-1" d="M265.148,0C129.05,0,16.694,45.108,0,103.458H530.32C513.627,45.108,401.27,0,265.148,0Z" transform="translate(7816 -960.5)"/>
    </g>
  </g>
  <g id="Group_1303" data-name="Group 1303" class="cls-4" transform="translate(28)">
    <g id="Group_29" data-name="Group 29" transform="translate(111.063 43.925)">
      <path id="Path_16" data-name="Path 16" class="cls-1" d="M409.392,181.938c-.631,0-1.142.773-1.142,1.727v2.044c0,.954.511,1.727,1.142,1.727s1.142-.773,1.142-1.727v-2.044C410.534,182.711,410.023,181.938,409.392,181.938Z" transform="translate(-406.643 -181.938)"/>
      <path id="Path_17" data-name="Path 17" class="cls-1" d="M1.142,0C.511,0,0,.773,0,1.727V3.771C0,4.725.511,5.5,1.142,5.5s1.142-.773,1.142-1.727V1.727C2.285.773,1.773,0,1.142,0Z" transform="translate(5.499 1.607) rotate(90)"/>
    </g>
    <g id="Group_33" data-name="Group 33" transform="translate(211.548)">
      <path id="Path_16-2" data-name="Path 16" class="cls-1" d="M410.277,181.938c-1.12,0-2.027,1.372-2.027,3.065v3.628c0,1.693.908,3.065,2.027,3.065s2.027-1.373,2.027-3.065V185C412.3,183.31,411.4,181.938,410.277,181.938Z" transform="translate(-405.398 -181.938)"/>
      <path id="Path_17-2" data-name="Path 17" class="cls-1" d="M2.027,0C.908,0,0,1.373,0,3.065V6.693C0,8.386.908,9.758,2.027,9.758S4.055,8.386,4.055,6.693V3.065C4.055,1.373,3.147,0,2.027,0Z" transform="translate(9.758 2.852) rotate(90)"/>
    </g>
    <g id="Group_36" data-name="Group 36" transform="translate(309.389 95.197)">
      <path id="Path_16-3" data-name="Path 16" class="cls-1" d="M410.277,181.938c-1.12,0-2.027,1.372-2.027,3.065v3.628c0,1.693.908,3.065,2.027,3.065s2.027-1.373,2.027-3.065V185C412.3,183.31,411.4,181.938,410.277,181.938Z" transform="translate(-405.398 -181.938)"/>
      <path id="Path_17-3" data-name="Path 17" class="cls-1" d="M2.027,0C.908,0,0,1.373,0,3.065V6.693C0,8.386.908,9.758,2.027,9.758S4.055,8.386,4.055,6.693V3.065C4.055,1.373,3.147,0,2.027,0Z" transform="translate(9.758 2.852) rotate(90)"/>
    </g>
    <g id="Group_37" data-name="Group 37" transform="translate(273.691 122.962)">
      <path id="Path_16-4" data-name="Path 16" class="cls-1" d="M410.277,181.938c-1.12,0-2.027,1.372-2.027,3.065v3.628c0,1.693.908,3.065,2.027,3.065s2.027-1.373,2.027-3.065V185C412.3,183.31,411.4,181.938,410.277,181.938Z" transform="translate(-405.398 -181.938)"/>
      <path id="Path_17-4" data-name="Path 17" class="cls-1" d="M2.027,0C.908,0,0,1.373,0,3.065V6.693C0,8.386.908,9.758,2.027,9.758S4.055,8.386,4.055,6.693V3.065C4.055,1.373,3.147,0,2.027,0Z" transform="translate(9.758 2.852) rotate(90)"/>
    </g>
    <g id="Group_34" data-name="Group 34" transform="translate(72.72)">
      <path id="Path_16-5" data-name="Path 16" class="cls-1" d="M410.277,181.938c-1.12,0-2.027,1.372-2.027,3.065v3.628c0,1.693.908,3.065,2.027,3.065s2.027-1.373,2.027-3.065V185C412.3,183.31,411.4,181.938,410.277,181.938Z" transform="translate(-405.398 -181.938)"/>
      <path id="Path_17-5" data-name="Path 17" class="cls-1" d="M2.027,0C.908,0,0,1.373,0,3.065V6.693C0,8.386.908,9.758,2.027,9.758S4.055,8.386,4.055,6.693V3.065C4.055,1.373,3.147,0,2.027,0Z" transform="translate(9.758 2.852) rotate(90)"/>
    </g>
    <g id="Group_30" data-name="Group 30" transform="translate(15.866 117.674)">
      <path id="Path_16-6" data-name="Path 16" class="cls-1" d="M410.277,181.938c-1.12,0-2.027,1.372-2.027,3.065v3.628c0,1.693.908,3.065,2.027,3.065s2.027-1.373,2.027-3.065V185C412.3,183.31,411.4,181.938,410.277,181.938Z" transform="translate(-405.398 -181.938)"/>
      <path id="Path_17-6" data-name="Path 17" class="cls-1" d="M2.027,0C.908,0,0,1.373,0,3.065V6.693C0,8.386.908,9.758,2.027,9.758S4.055,8.386,4.055,6.693V3.065C4.055,1.373,3.147,0,2.027,0Z" transform="translate(9.758 2.852) rotate(90)"/>
    </g>
    <g id="Group_31" data-name="Group 31" transform="translate(0 41.491)">
      <path id="Path_16-7" data-name="Path 16" class="cls-1" d="M411.546,181.938c-1.82,0-3.3,2.232-3.3,4.984v5.9c0,2.753,1.476,4.984,3.3,4.984s3.3-2.231,3.3-4.984v-5.9C414.842,184.17,413.366,181.938,411.546,181.938Z" transform="translate(-403.613 -181.938)"/>
      <path id="Path_17-7" data-name="Path 17" class="cls-1" d="M3.3,0C1.476,0,0,2.232,0,4.984v5.9c0,2.753,1.476,4.984,3.3,4.984s3.3-2.231,3.3-4.984v-5.9C6.592,2.232,5.116,0,3.3,0Z" transform="translate(15.866 4.637) rotate(90)"/>
    </g>
    <g id="Group_35" data-name="Group 35" transform="translate(282.946 1.825)">
      <path id="Path_16-8" data-name="Path 16" class="cls-1" d="M411.546,181.938c-1.82,0-3.3,2.232-3.3,4.984v5.9c0,2.753,1.476,4.984,3.3,4.984s3.3-2.231,3.3-4.984v-5.9C414.842,184.17,413.366,181.938,411.546,181.938Z" transform="translate(-403.613 -181.938)"/>
      <path id="Path_17-8" data-name="Path 17" class="cls-1" d="M3.3,0C1.476,0,0,2.232,0,4.984v5.9c0,2.753,1.476,4.984,3.3,4.984s3.3-2.231,3.3-4.984v-5.9C6.592,2.232,5.116,0,3.3,0Z" transform="translate(15.866 4.637) rotate(90)"/>
    </g>
  </g>
  <g id="Group_1354" data-name="Group 1354" transform="translate(0 -1)">
    <g id="Group_1344" data-name="Group 1344" transform="translate(-5952.22 -696)">
      <g id="Group_900" data-name="Group 900" transform="translate(6105.22 731.035)">
        <path id="Path_1218" data-name="Path 1218" class="cls-1" d="M72.22,9.746a4.637,4.637,0,0,0-4.259,2.681c-.226.451-.226.476-.727.326a11.5,11.5,0,0,1-1.2-.426A2.005,2.005,0,0,1,64.878,9.7a17.6,17.6,0,0,1,.7-2.029,4.9,4.9,0,0,1,1.829-2.08c1-.6,2.055-1.127,3.082-1.654,2.13-1.1,4.284-2.255,6.439-3.307A4.42,4.42,0,0,1,80.312.351c1.7.526,3.382,1.153,5.061,1.729,2.405.827,4.811,1.679,7.216,2.505a3.209,3.209,0,0,1,2.08,2.806c.05.977.05,1.979.15,2.931A4.813,4.813,0,0,0,96.5,13.5l1.879,1.578c.15.125.175.225.075.426a1.252,1.252,0,0,0,.1,1.4,1.015,1.015,0,0,1,.075,1.2,2.127,2.127,0,0,0-.075,1.9c.175.451.326.9.5,1.378a1.482,1.482,0,0,1-.075,1.178,1.163,1.163,0,0,1-1.553.676c-.9-.276-1.779-.626-2.681-.927-.251-.075-.3-.2-.226-.451a4.652,4.652,0,0,0-1.9-5.136,4.771,4.771,0,0,0-5.111-.05,4.691,4.691,0,0,0-1.779,2.1c-.1.251-.225.326-.476.225l-8.043-2.781c-.075-.025-.125-.05-.2-.075-.351-.075-.376-.276-.3-.6a4.7,4.7,0,0,0-3.483-5.687C72.871,9.8,72.52,9.8,72.22,9.746Zm17.714,1.929c.5-.05,1.027-.05,1.528-.125a14.074,14.074,0,0,0,1.378-.376c.175-.05.326-.125.3-.351-.075-.877-.125-1.779-.175-2.656a2.379,2.379,0,0,0-1.729-2.18c-.451-.125-.877-.3-1.3-.451-1.829-.626-3.633-1.278-5.462-1.9-.852-.3-1.754-.5-2.581-.852a3.152,3.152,0,0,0-2.13-.175,15.671,15.671,0,0,0-2.029.827c-.376.175-.376.225-.1.526.6.651,1.2,1.3,1.829,1.929A25.032,25.032,0,0,0,84.6,10.072,10.246,10.246,0,0,0,89.933,11.676Z" transform="translate(-64.738 -0.134)"/>
        <path id="Path_1219" data-name="Path 1219" class="cls-1" d="M87.315,46.557A3.558,3.558,0,1,1,83.757,43,3.539,3.539,0,0,1,87.315,46.557Zm-3.558,1.178a1.19,1.19,0,0,0,.05-2.38,1.248,1.248,0,0,0-1.278,1.178A1.225,1.225,0,0,0,83.757,47.735Z" transform="translate(-76.325 -32.259)"/>
        <path id="Path_1220" data-name="Path 1220" class="cls-1" d="M155.057,67.8a3.546,3.546,0,1,1-3.558,3.533A3.518,3.518,0,0,1,155.057,67.8Zm0,4.735a1.161,1.161,0,0,0,1.178-1.178,1.187,1.187,0,0,0-1.2-1.2,1.225,1.225,0,0,0-1.228,1.2A1.243,1.243,0,0,0,155.057,72.535Z" transform="translate(-129.761 -50.845)"/>
      </g>
      <g id="Group_904" data-name="Group 904" transform="translate(6139.664 731)">
        <path id="Path_1228" data-name="Path 1228" class="cls-1" d="M203.009,23.122a.19.19,0,0,1-.225-.225,4.194,4.194,0,0,0,.05-2.23c-.175-.351-.351-.7-.5-1.052a1.218,1.218,0,0,1,.225-1.4,1.029,1.029,0,0,0,.175-1.278c-.075-.175-.125-.351-.2-.526-.276-.651-.125-1,.426-1.5.7-.626,1.453-1.178,2.13-1.829a4.67,4.67,0,0,0,1.4-3.182c.05-.952.05-1.9.175-2.831A3,3,0,0,1,208.7,4.431c1.654-.6,3.332-1.2,5.011-1.779,2.33-.8,4.66-1.629,7.015-2.405A5.159,5.159,0,0,1,224.882.7c2.355,1.228,4.71,2.455,7.04,3.683a19.642,19.642,0,0,1,2.355,1.328,3.546,3.546,0,0,1,1.077,1.278,29.366,29.366,0,0,1,1.178,2.906,2.292,2.292,0,0,1-.526,1.979c-.025.05-.1.075-.15.1-.677.251-1.353.526-2.029.777-.2.075-.3-.025-.376-.2a4.736,4.736,0,0,0-1.127-1.654,4.655,4.655,0,0,0-7.015.777,4.5,4.5,0,0,0-.651,3.858c.05.225.025.376-.225.451-1.7.576-3.433,1.178-5.136,1.779-1.027.351-2.054.7-3.082,1.077-.426.15-.451.175-.651-.251a4.744,4.744,0,0,0-2.806-2.531,4.655,4.655,0,0,0-6.063,3.608,4.609,4.609,0,0,0,.1,2.1.308.308,0,0,1-.2.4A34.226,34.226,0,0,1,203.009,23.122ZM223.68,3.529c-.476-.251-.877-.451-1.278-.651a3.838,3.838,0,0,0-3.057-.3c-1.654.551-3.307,1.127-4.961,1.7-1.578.551-3.157,1.1-4.735,1.629a2.371,2.371,0,0,0-1.629,2.13l-.15,2.556a.419.419,0,0,0,.326.5,8.293,8.293,0,0,0,4.059.376,11.445,11.445,0,0,0,4.986-2.029A28.77,28.77,0,0,0,222,5.308C222.577,4.756,223.1,4.18,223.68,3.529Z" transform="translate(-202.21 0.005)"/>
        <path id="Path_1229" data-name="Path 1229" class="cls-1" d="M302.441,46.483a3.57,3.57,0,0,1-7.141,0,3.622,3.622,0,0,1,3.533-3.583A3.572,3.572,0,0,1,302.441,46.483Zm-3.558,1.178a1.191,1.191,0,1,0,0-2.38,1.19,1.19,0,0,0,0,2.38Z" transform="translate(-271.976 -32.15)"/>
        <path id="Path_1230" data-name="Path 1230" class="cls-1" d="M227.849,67.8a3.545,3.545,0,1,1-.025,7.091,3.545,3.545,0,1,1,.025-7.091Zm0,2.33a1.173,1.173,0,0,0-1.228,1.178,1.158,1.158,0,0,0,1.2,1.2,1.19,1.19,0,1,0,.025-2.38Z" transform="translate(-218.757 -50.811)"/>
        <path id="Path_1231" data-name="Path 1231" class="cls-1" d="M302.441,46.483a3.57,3.57,0,0,1-7.141,0,3.57,3.57,0,1,1,7.141,0Zm-3.558,1.178a1.191,1.191,0,1,0,0-2.38,1.19,1.19,0,0,0,0,2.38Z" transform="translate(-271.976 -32.15)"/>
        <path id="Path_1232" data-name="Path 1232" class="cls-1" d="M227.849,67.8a3.545,3.545,0,1,1-.025,7.091,3.545,3.545,0,1,1,.025-7.091Zm0,2.33a1.173,1.173,0,0,0-1.228,1.178,1.158,1.158,0,0,0,1.2,1.2,1.2,1.2,0,0,0,1.2-1.178A1.214,1.214,0,0,0,227.849,70.129Z" transform="translate(-218.757 -50.811)"/>
      </g>
      <path id="Path_1255" data-name="Path 1255" class="cls-1" d="M203.575,43.826a.271.271,0,0,0,.175.075.227.227,0,0,0,.175-.075.271.271,0,0,0,.075-.175.227.227,0,0,0-.075-.175.271.271,0,0,0-.175-.075.227.227,0,0,0-.175.075.242.242,0,0,0,0,.351Z" transform="translate(5936.487 698.475)"/>
      <path id="Path_1256" data-name="Path 1256" class="cls-1" d="M195.612,29.586l-.251-.276.276-.251a.266.266,0,1,0-.351-.4l-.276.251-.251-.276a.266.266,0,0,0-.4.351l.251.276-.276.251a.266.266,0,0,0,.351.4l.276-.251.251.276a.272.272,0,0,0,.376.025A.252.252,0,0,0,195.612,29.586Z" transform="translate(5943.422 709.608)"/>
      <path id="Path_1257" data-name="Path 1257" class="cls-1" d="M200.545,50.6l-.15-.326.326-.15a.288.288,0,0,0,.125-.351.278.278,0,0,0-.351-.125l-.326.15-.15-.326a.263.263,0,1,0-.476.225l.15.326-.326.15a.263.263,0,1,0,.225.476l.326-.15.15.326a.288.288,0,0,0,.351.125A.278.278,0,0,0,200.545,50.6Z" transform="translate(5939.692 693.036)"/>
      <path id="Path_1258" data-name="Path 1258" class="cls-1" d="M195.2,15.7a.9.9,0,1,0,.9-.9A.9.9,0,0,0,195.2,15.7Zm1.253,0a.376.376,0,1,1-.376-.376A.369.369,0,0,1,196.453,15.7Z" transform="translate(5942.707 719.909)"/>
      <path id="Path_1259" data-name="Path 1259" class="cls-1" d="M207.826,33.875a.251.251,0,0,0-.426.175.228.228,0,0,0,.075.175.248.248,0,1,0,.351-.351Z" transform="translate(5933.564 705.67)"/>
      <path id="Path_1260" data-name="Path 1260" class="cls-1" d="M194.1,40.151a.227.227,0,0,0,.075.175.271.271,0,0,0,.175.075.228.228,0,0,0,.175-.075.271.271,0,0,0,.075-.175.227.227,0,0,0-.075-.175.242.242,0,0,0-.351,0A.227.227,0,0,0,194.1,40.151Z" transform="translate(5943.532 701.098)"/>
      <path id="Path_1261" data-name="Path 1261" class="cls-1" d="M203,22.551a.227.227,0,0,0-.075-.175.251.251,0,0,0-.426.175.227.227,0,0,0,.075.175.242.242,0,0,0,.351,0A.2.2,0,0,0,203,22.551Z" transform="translate(5937.236 715.289)"/>
    </g>
  </g>
</svg>
