<svg xmlns="http://www.w3.org/2000/svg" viewBox="0 0 138.031 87.921">
  <defs>
    <style>
      .cls-1 {
        fill: #f00a0a;
      }

      .cls-2 {
        fill: #edeff2;
      }

      .cls-3 {
        fill: #d3d6dd;
      }

      .cls-4 {
        fill: #acb2c4;
      }
    </style>
  </defs>
  <g id="Group_1088" data-name="Group 1088" transform="translate(-118 -203.658)">
    <g id="Group_8" data-name="Group 8" transform="translate(118 223)">
      <g id="Group_28" data-name="Group 28" transform="translate(112.08 26.876)">
        <path id="Path_16" data-name="Path 16" class="cls-1" d="M409.127,181.938c-.484,0-.877.594-.877,1.326v1.569c0,.732.393,1.326.877,1.326s.877-.594.877-1.326v-1.569C410,182.532,409.611,181.938,409.127,181.938Z" transform="translate(-407.017 -181.938)"/>
        <path id="Path_17" data-name="Path 17" class="cls-1" d="M.877,0C.393,0,0,.594,0,1.326V2.895C0,3.627.393,4.22.877,4.22s.877-.594.877-1.326V1.326C1.754.594,1.361,0,.877,0Z" transform="translate(4.22 1.233) rotate(90)"/>
      </g>
      <g id="Group_29" data-name="Group 29" transform="translate(48.034 18.998)">
        <path id="Path_16-2" data-name="Path 16" class="cls-1" d="M408.744,181.938c-.273,0-.494.334-.494.747v.884c0,.413.221.747.494.747s.494-.334.494-.747v-.884C409.238,182.272,409.017,181.938,408.744,181.938Z" transform="translate(-407.555 -181.938)"/>
        <path id="Path_17-2" data-name="Path 17" class="cls-1" d="M.494,0C.221,0,0,.334,0,.747v.884c0,.413.221.747.494.747s.494-.334.494-.747V.747C.988.334.767,0,.494,0Z" transform="translate(2.378 0.695) rotate(90)"/>
      </g>
      <g id="Group_32" data-name="Group 32" transform="translate(69.764 26.876)">
        <path id="Path_16-3" data-name="Path 16" class="cls-1" d="M409.127,181.938c-.484,0-.877.594-.877,1.326v1.569c0,.732.393,1.326.877,1.326s.877-.594.877-1.326v-1.569C410,182.532,409.611,181.938,409.127,181.938Z" transform="translate(-407.017 -181.938)"/>
        <path id="Path_17-3" data-name="Path 17" class="cls-1" d="M.877,0C.393,0,0,.594,0,1.326V2.895C0,3.627.393,4.22.877,4.22s.877-.594.877-1.326V1.326C1.754.594,1.361,0,.877,0Z" transform="translate(4.22 1.233) rotate(90)"/>
      </g>
      <g id="Group_33" data-name="Group 33" transform="translate(91.494)">
        <path id="Path_16-4" data-name="Path 16" class="cls-1" d="M409.127,181.938c-.484,0-.877.594-.877,1.326v1.569c0,.732.393,1.326.877,1.326s.877-.594.877-1.326v-1.569C410,182.532,409.611,181.938,409.127,181.938Z" transform="translate(-407.017 -181.938)"/>
        <path id="Path_17-4" data-name="Path 17" class="cls-1" d="M.877,0C.393,0,0,.594,0,1.326V2.895C0,3.627.393,4.22.877,4.22s.877-.594.877-1.326V1.326C1.754.594,1.361,0,.877,0Z" transform="translate(4.22 1.233) rotate(90)"/>
      </g>
      <g id="Group_38" data-name="Group 38" transform="translate(21.73 24.589)">
        <path id="Path_16-5" data-name="Path 16" class="cls-1" d="M409.127,181.938c-.484,0-.877.594-.877,1.326v1.569c0,.732.393,1.326.877,1.326s.877-.594.877-1.326v-1.569C410,182.532,409.611,181.938,409.127,181.938Z" transform="translate(-407.017 -181.938)"/>
        <path id="Path_17-5" data-name="Path 17" class="cls-1" d="M.877,0C.393,0,0,.594,0,1.326V2.895C0,3.627.393,4.22.877,4.22s.877-.594.877-1.326V1.326C1.754.594,1.361,0,.877,0Z" transform="translate(4.22 1.233) rotate(90)"/>
      </g>
      <g id="Group_36" data-name="Group 36" transform="translate(133.81 41.172)">
        <path id="Path_16-6" data-name="Path 16" class="cls-1" d="M409.127,181.938c-.484,0-.877.594-.877,1.326v1.569c0,.732.393,1.326.877,1.326s.877-.594.877-1.326v-1.569C410,182.532,409.611,181.938,409.127,181.938Z" transform="translate(-407.017 -181.938)"/>
        <path id="Path_17-6" data-name="Path 17" class="cls-1" d="M.877,0C.393,0,0,.594,0,1.326V2.895C0,3.627.393,4.22.877,4.22s.877-.594.877-1.326V1.326C1.754.594,1.361,0,.877,0Z" transform="translate(4.22 1.233) rotate(90)"/>
      </g>
      <g id="Group_37" data-name="Group 37" transform="translate(118.371 53.181)">
        <path id="Path_16-7" data-name="Path 16" class="cls-1" d="M409.127,181.938c-.484,0-.877.594-.877,1.326v1.569c0,.732.393,1.326.877,1.326s.877-.594.877-1.326v-1.569C410,182.532,409.611,181.938,409.127,181.938Z" transform="translate(-407.017 -181.938)"/>
        <path id="Path_17-7" data-name="Path 17" class="cls-1" d="M.877,0C.393,0,0,.594,0,1.326V2.895C0,3.627.393,4.22.877,4.22s.877-.594.877-1.326V1.326C1.754.594,1.361,0,.877,0Z" transform="translate(4.22 1.233) rotate(90)"/>
      </g>
      <g id="Group_34" data-name="Group 34" transform="translate(31.451)">
        <path id="Path_16-8" data-name="Path 16" class="cls-1" d="M409.127,181.938c-.484,0-.877.594-.877,1.326v1.569c0,.732.393,1.326.877,1.326s.877-.594.877-1.326v-1.569C410,182.532,409.611,181.938,409.127,181.938Z" transform="translate(-407.017 -181.938)"/>
        <path id="Path_17-8" data-name="Path 17" class="cls-1" d="M.877,0C.393,0,0,.594,0,1.326V2.895C0,3.627.393,4.22.877,4.22s.877-.594.877-1.326V1.326C1.754.594,1.361,0,.877,0Z" transform="translate(4.22 1.233) rotate(90)"/>
      </g>
      <g id="Group_30" data-name="Group 30" transform="translate(6.862 50.894)">
        <path id="Path_16-9" data-name="Path 16" class="cls-1" d="M409.127,181.938c-.484,0-.877.594-.877,1.326v1.569c0,.732.393,1.326.877,1.326s.877-.594.877-1.326v-1.569C410,182.532,409.611,181.938,409.127,181.938Z" transform="translate(-407.017 -181.938)"/>
        <path id="Path_17-9" data-name="Path 17" class="cls-1" d="M.877,0C.393,0,0,.594,0,1.326V2.895C0,3.627.393,4.22.877,4.22s.877-.594.877-1.326V1.326C1.754.594,1.361,0,.877,0Z" transform="translate(4.22 1.233) rotate(90)"/>
      </g>
      <g id="Group_31" data-name="Group 31" transform="translate(0 17.945)">
        <path id="Path_16-10" data-name="Path 16" class="cls-1" d="M409.675,181.938c-.787,0-1.425.965-1.425,2.156v2.551c0,1.19.638,2.156,1.425,2.156s1.426-.965,1.426-2.156v-2.551C411.1,182.9,410.463,181.938,409.675,181.938Z" transform="translate(-406.245 -181.938)"/>
        <path id="Path_17-10" data-name="Path 17" class="cls-1" d="M1.426,0C.638,0,0,.965,0,2.156V4.706C0,5.9.638,6.862,1.426,6.862S2.851,5.9,2.851,4.706V2.156C2.851.965,2.213,0,1.426,0Z" transform="translate(6.862 2.005) rotate(90)"/>
      </g>
      <g id="Group_35" data-name="Group 35" transform="translate(122.373 0.789)">
        <path id="Path_16-11" data-name="Path 16" class="cls-1" d="M409.675,181.938c-.787,0-1.425.965-1.425,2.156v2.551c0,1.19.638,2.156,1.425,2.156s1.426-.965,1.426-2.156v-2.551C411.1,182.9,410.463,181.938,409.675,181.938Z" transform="translate(-406.245 -181.938)"/>
        <path id="Path_17-11" data-name="Path 17" class="cls-1" d="M1.426,0C.638,0,0,.965,0,2.156V4.706C0,5.9.638,6.862,1.426,6.862S2.851,5.9,2.851,4.706V2.156C2.851.965,2.213,0,1.426,0Z" transform="translate(6.862 2.005) rotate(90)"/>
      </g>
    </g>
    <g id="Group_9" data-name="Group 9" transform="translate(-4333 -574)">
      <g id="Group_1013" data-name="Group 1013" transform="translate(4484.012 777.658)">
        <path id="Path_187" data-name="Path 187" class="cls-2" d="M47.4,18.847v7.059s.1,3.539,3.114,4.081H97.782a4.432,4.432,0,0,0,3.752-3.307V19.853L81.381,15.327,73.568,8.5,64.5,15.463,56.9,18.17Z" transform="translate(-38.233 -6.856)"/>
        <path id="Path_188" data-name="Path 188" class="cls-3" d="M103.93,360.666a52.412,52.412,0,0,1,4.564-3.713,18.461,18.461,0,0,0,3.036-2.553H62.6a18.749,18.749,0,0,1,1.489,1.547,75.6,75.6,0,0,0,4.912,5.9c3.307,3.152,7.775,4.506,11.314,7.311a16.818,16.818,0,0,0,2.978,2.089h5.3a26.574,26.574,0,0,0,4.061-1.779C96.968,367.2,100.372,363.877,103.93,360.666Z" transform="translate(-50.493 -285.858)"/>
        <path id="Path_189" data-name="Path 189" class="cls-4" d="M35.934,87.921c-.542-.29-1.1-.561-1.644-.851-1.451-.754-2.978-1.528-4.41-2.34A84.181,84.181,0,0,1,10.1,70.128,37.653,37.653,0,0,1,1.76,58.021,23.578,23.578,0,0,1,0,49.028c.019-9.3,0-18.78,0-27.928V10.985q2.2.116,4.236.116c13.4,0,23.518-3.539,31.738-11.1,8.2,7.562,18.315,11.1,31.718,11.1,1.373,0,2.8-.039,4.255-.116v.425c0,3.6-.019,7.272-.019,10.811-.019,8.394-.058,17.058.058,25.587.1,6.769-2.243,12.977-7.117,18.973a69.961,69.961,0,0,1-18.1,15.182c-2.36,1.451-4.874,2.785-7.311,4.061-1.122.6-2.282,1.218-3.423,1.837A.423.423,0,0,1,35.934,87.921Zm.039-82.97a2.109,2.109,0,0,0-1.257.464C28.469,10.1,21.1,12.9,12.184,13.983c-1.7.213-3.4.329-5.222.445-.812.058-1.663.116-2.514.174l-1.025.077L3.385,15.7a.942.942,0,0,1-.019.232c-.019.193-.019.387-.019.6V49.2a19.575,19.575,0,0,0,1.141,6.556,32.079,32.079,0,0,0,7.6,11.6c5.918,6.15,13.384,11.469,22.822,16.246a2.083,2.083,0,0,0,1.006.213h0a2.654,2.654,0,0,0,1.238-.29,95.039,95.039,0,0,0,12.958-7.852c6.286-4.564,10.56-8.664,13.828-13.326,3.133-4.468,4.6-8.471,4.622-12.61.039-8.278.039-16.691.019-24.814V16.111a2.6,2.6,0,0,0-.058-.522l-.135-.87-.909-.077c-.986-.1-1.973-.174-2.92-.251-2.127-.174-4.139-.329-6.17-.619A44.509,44.509,0,0,1,37.25,5.4,2.3,2.3,0,0,0,35.973,4.951Z"/>
        <rect id="Rectangle_50" data-name="Rectangle 50" class="cls-4" width="71.134" height="3.288" transform="translate(0.58 26.419)"/>
        <path id="Path_190" data-name="Path 190" class="cls-4" d="M133.193,188.825a1.553,1.553,0,0,0-2.185,0l-20.385,20.424-9.9-9.728a1.545,1.545,0,0,0-2.166,2.2l11,10.811a1.565,1.565,0,0,0,2.185,0l21.468-21.507A1.6,1.6,0,0,0,133.193,188.825Z" transform="translate(-79.117 -151.942)"/>
      </g>
    </g>
  </g>
</svg>
